<svg width="20" height="20" viewBox="0 0 20 20" fill="none" xmlns="http://www.w3.org/2000/svg">
<path d="M2.18281 16.8175C2.42656 17.0612 2.82281 17.0612 3.06656 16.8175L15.7503 4.13375V8.875C15.7503 9.22 16.0303 9.5 16.3753 9.5C16.7203 9.5 17.0003 9.22 17.0003 8.875V2.625C17.0003 2.54375 16.9841 2.4625 16.9516 2.38625C16.8878 2.23375 16.7666 2.11125 16.6141 2.04875C16.5378 2.01625 16.4566 2 16.3753 2H10.1253C9.78031 2 9.50031 2.28 9.50031 2.625C9.50031 2.97 9.78031 3.25 10.1253 3.25H14.8666L2.18281 15.9325C1.93906 16.1775 1.93906 16.5725 2.18281 16.8175Z" fill="#1B3A57"/>
</svg>
