<svg width="70" height="70" viewBox="0 0 70 70" fill="none" xmlns="http://www.w3.org/2000/svg">
<path d="M41.5625 13.125H17.5C16.3397 13.125 15.2269 13.5859 14.4064 14.4064C13.5859 15.2269 13.125 16.3397 13.125 17.5V28.4375C13.125 29.5978 13.5859 30.7106 14.4064 31.5311C15.2269 32.3516 16.3397 32.8125 17.5 32.8125H41.5625C42.7228 32.8125 43.8356 32.3516 44.6561 31.5311C45.4766 30.7106 45.9375 29.5978 45.9375 28.4375V17.5C45.9375 16.3397 45.4766 15.2269 44.6561 14.4064C43.8356 13.5859 42.7228 13.125 41.5625 13.125ZM17.5 28.4375V17.5H41.5625V28.4375H17.5Z" fill="white"/>
<path d="M41.5625 37.1875H17.5C16.9198 37.1875 16.3634 37.418 15.9532 37.8282C15.543 38.2384 15.3125 38.7948 15.3125 39.375C15.3125 39.9552 15.543 40.5116 15.9532 40.9218C16.3634 41.332 16.9198 41.5625 17.5 41.5625H41.5625C42.1427 41.5625 42.6991 41.332 43.1093 40.9218C43.5195 40.5116 43.75 39.9552 43.75 39.375C43.75 38.7948 43.5195 38.2384 43.1093 37.8282C42.6991 37.418 42.1427 37.1875 41.5625 37.1875Z" fill="white"/>
<path d="M41.5625 45.9375H17.5C16.9198 45.9375 16.3634 46.168 15.9532 46.5782C15.543 46.9884 15.3125 47.5448 15.3125 48.125C15.3125 48.7052 15.543 49.2616 15.9532 49.6718C16.3634 50.082 16.9198 50.3125 17.5 50.3125H41.5625C42.1427 50.3125 42.6991 50.082 43.1093 49.6718C43.5195 49.2616 43.75 48.7052 43.75 48.125C43.75 47.5448 43.5195 46.9884 43.1093 46.5782C42.6991 46.168 42.1427 45.9375 41.5625 45.9375Z" fill="white"/>
<path d="M59.0625 19.6875H54.6875V10.9375C54.6875 9.19702 53.9961 7.52782 52.7654 6.29711C51.5347 5.0664 49.8655 4.375 48.125 4.375H10.9375C9.19702 4.375 7.52782 5.0664 6.29711 6.29711C5.0664 7.52782 4.375 9.19702 4.375 10.9375V54.6875C4.37847 57.5872 5.53193 60.3672 7.58236 62.4176C9.63278 64.4681 12.4128 65.6215 15.3125 65.625H57.9688C59.9993 65.625 61.9467 64.8184 63.3825 63.3825C64.8184 61.9467 65.625 59.9993 65.625 57.9688V26.25C65.625 24.5095 64.9336 22.8403 63.7029 21.6096C62.4722 20.3789 60.803 19.6875 59.0625 19.6875ZM8.75 54.6875V10.9375C8.75 10.3573 8.98047 9.80094 9.3907 9.3907C9.80094 8.98047 10.3573 8.75 10.9375 8.75H48.125C48.7052 8.75 49.2616 8.98047 49.6718 9.3907C50.082 9.80094 50.3125 10.3573 50.3125 10.9375V57.9688C50.3189 59.1063 50.5813 60.2277 51.0803 61.25H15.3125C13.572 61.25 11.9028 60.5586 10.6721 59.3279C9.4414 58.0972 8.75 56.428 8.75 54.6875ZM61.25 57.9688C61.25 58.839 60.9043 59.6736 60.2889 60.2889C59.6736 60.9043 58.839 61.25 57.9688 61.25C57.0985 61.25 56.2639 60.9043 55.6486 60.2889C55.0332 59.6736 54.6875 58.839 54.6875 57.9688V24.0625H59.0625C59.6427 24.0625 60.1991 24.293 60.6093 24.7032C61.0195 25.1134 61.25 25.6698 61.25 26.25V57.9688Z" fill="white"/>
</svg>
