<svg width="30" height="30" viewBox="0 0 30 30" fill="none" xmlns="http://www.w3.org/2000/svg">
<g clip-path="url(#clip0_446_1390)">
<path d="M15.5859 15.5854C15.5859 15.9091 15.3236 16.1714 15 16.1714C14.6764 16.1714 14.4141 15.9091 14.4141 15.5854C14.4141 15.2618 14.6764 14.9995 15 14.9995C15.3236 14.9995 15.5859 15.2618 15.5859 15.5854Z" fill="#00A6ED"/>
<path d="M24.8288 16.0189C24.1751 15.3655 23.1168 15.3643 22.4631 16.0187L20.4906 17.9907C20.1065 18.3753 19.5135 18.4538 19.0807 18.177C18.5108 17.8131 17.9168 17.3844 17.3155 16.9026C17.0628 16.7003 16.6941 16.741 16.4918 16.9935C16.2895 17.2462 16.3302 17.6149 16.5829 17.8172C17.2167 18.3249 17.8447 18.7783 18.4496 19.1647C19.3423 19.735 20.5494 19.5899 21.3194 18.8193L23.2921 16.8472C23.4848 16.6543 23.8004 16.6479 24.0019 16.8493L28.6823 21.4883C28.8775 21.6835 28.8773 22.0014 28.6823 22.1967L27.4813 23.3978C25.759 25.1195 23.0362 25.5768 20.8595 24.5095C11.3898 19.8664 6.68832 11.5012 5.47296 9.04809C4.39493 6.87143 4.84285 4.237 6.58762 2.49224L7.76132 1.31761C7.95679 1.12238 8.2747 1.12238 8.46994 1.31739L13.1112 5.95865C13.3067 6.15411 13.3069 6.47089 13.1112 6.66635L11.1389 8.63885C10.3683 9.4095 10.2232 10.6164 10.7935 11.5086C11.3246 12.3399 11.9732 13.2032 12.7212 14.0748C12.932 14.3202 13.3019 14.3485 13.5477 14.1377C13.793 13.9269 13.8214 13.5571 13.6106 13.3112C12.8981 12.4813 12.2827 11.6626 11.7809 10.8773C11.5045 10.445 11.583 9.85216 11.9677 9.46741L13.94 7.49513C14.5934 6.84168 14.5937 5.78356 13.94 5.1301L9.29849 0.488605C8.64686 -0.162792 7.58577 -0.163021 6.93277 0.488834L5.75861 1.66368C3.65839 3.76413 3.12143 6.94055 4.42285 9.56811C5.67964 12.105 10.5425 20.7561 20.3436 25.5617C21.2891 26.0252 22.3152 26.2614 23.3619 26.2614C23.3738 26.2614 23.3857 26.2607 23.3976 26.2605C23.228 27.704 21.9978 28.8278 20.5096 28.8278H16.7243C15.6154 28.8278 14.6186 28.2117 14.1229 27.2197L13.3412 25.6571C13.2419 25.4585 13.0391 25.3333 12.8171 25.3333C12.5953 25.3333 12.3923 25.4587 12.2932 25.6571L11.0698 28.1036L9.84666 25.6571C9.74733 25.4585 9.54454 25.3333 9.32252 25.3333C9.10074 25.3333 8.89772 25.4587 8.79861 25.6571L7.57524 28.1036L6.3521 25.6571C6.25276 25.4585 6.04997 25.3333 5.82796 25.3333C5.60617 25.3333 5.40315 25.4587 5.30405 25.6571L4.08067 28.1036L2.85753 25.6571C2.7582 25.4585 2.55541 25.3333 2.33339 25.3333C2.1116 25.3333 1.90859 25.4587 1.80948 25.6571L0.0619689 29.1519C-0.0826844 29.4412 0.0345031 29.7932 0.324038 29.9379C0.614718 30.0832 0.966052 29.9642 1.11025 29.6758L2.33339 27.2295L3.55654 29.6758C3.65587 29.8745 3.85866 29.9997 4.08067 29.9997C4.30269 29.9997 4.50548 29.8743 4.60481 29.6758L5.82796 27.2295L7.0511 29.6758C7.15044 29.8745 7.35322 29.9997 7.57524 29.9997C7.79726 29.9997 8.00004 29.8743 8.09938 29.6758L9.32252 27.2295L10.5457 29.6758C10.645 29.8745 10.8478 29.9997 11.0698 29.9997C11.2918 29.9997 11.4946 29.8743 11.5939 29.6758L12.8173 27.2293L13.0746 27.7438C13.7699 29.1354 15.1684 29.9997 16.7243 29.9997H20.5096C22.6807 29.9997 24.4608 28.2952 24.583 26.154C26.0087 25.9048 27.2966 25.2392 28.3099 24.2264L29.5113 23.0248C30.1629 22.3724 30.1627 21.3113 29.5092 20.6577L24.8288 16.0189Z" fill="#00A6ED"/>
</g>
<defs>
<clipPath id="clip0_446_1390">
<rect width="30" height="30" fill="white"/>
</clipPath>
</defs>
</svg>
