<svg width="21" height="20" viewBox="0 0 21 20" fill="none" xmlns="http://www.w3.org/2000/svg">
<path d="M3.38906 1.01562C2.01417 1.01562 1.11523 1.91845 1.11523 3.10509C1.11523 4.26552 1.98739 5.19409 3.3363 5.19409H3.3624C4.76418 5.19409 5.63657 4.26552 5.63657 3.10509C5.61036 1.91845 4.76418 1.01562 3.38906 1.01562Z" fill="white"/>
<path d="M1.35254 6.84521H5.37193V18.9377H1.35254V6.84521Z" fill="white"/>
<path d="M15.2375 6.56128C13.0692 6.56128 11.6152 8.59879 11.6152 8.59879V6.84509H7.5957V18.9376H11.615V12.1847C11.615 11.8232 11.6412 11.4622 11.7474 11.2037C12.038 10.4818 12.6992 9.73392 13.8096 9.73392C15.264 9.73392 15.8457 10.8429 15.8457 12.4685V18.9376H19.8648V12.004C19.8648 8.28968 17.8818 6.56128 15.2375 6.56128Z" fill="white"/>
</svg>
