<svg width="20" height="20" viewBox="0 0 20 20" fill="none" xmlns="http://www.w3.org/2000/svg">
<path d="M9.99995 4.03418C8.45976 4.03418 7.20679 5.28719 7.20679 6.82734C7.20679 8.36754 8.45979 9.62051 9.99995 9.62051C11.5401 9.62051 12.7931 8.3675 12.7931 6.82734C12.7931 5.28719 11.5401 4.03418 9.99995 4.03418Z" fill="white"/>
<path d="M9.9999 0C6.17596 0 3.06494 3.11102 3.06494 6.93496C3.06494 8.4991 4.16217 11.0769 6.32611 14.5968C7.90822 17.1702 9.51272 19.3421 9.52873 19.3637L9.9999 20L10.4711 19.3637C10.4871 19.3421 12.0916 17.1702 13.6737 14.5968C15.8376 11.0769 16.9349 8.4991 16.9349 6.93496C16.9349 3.11102 13.8238 0 9.9999 0ZM9.9999 10.7932C7.81318 10.7932 6.0342 9.01418 6.0342 6.8275C6.0342 4.64078 7.81322 2.8618 9.9999 2.8618C12.1866 2.8618 13.9656 4.64082 13.9656 6.8275C13.9656 9.01418 12.1866 10.7932 9.9999 10.7932Z" fill="white"/>
</svg>
