<svg width="35" height="35" viewBox="0 0 35 35" fill="none" xmlns="http://www.w3.org/2000/svg">
<path d="M26.0541 35C23.3882 35 20.1179 33.7725 16.5149 31.3539C9.23017 26.4655 0.70512 16.4332 0.0443845 9.65426C-0.166889 7.4862 0.376782 5.73684 1.66066 4.45297L6.11363 0L15.1809 9.06723L14.4558 9.79226C13.2993 10.949 11.404 12.8402 10.049 14.1861C11.2955 16.0166 13.7017 18.7217 15.4771 20.4971C17.1577 22.1762 19.1023 23.7047 20.8549 24.8753C22.1174 23.6045 23.8168 21.9 25.2066 20.5072L25.9327 19.7815L34.9999 28.8506L30.601 33.2496C29.4304 34.4202 27.8852 35 26.0541 35Z" fill="#2DCE98"/>
</svg>
