<svg width="20" height="21" viewBox="0 0 20 21" fill="none" xmlns="http://www.w3.org/2000/svg">
<g clip-path="url(#clip0_2051_290)">
<path d="M14.888 20.5C13.3647 20.5 11.4959 19.7986 9.4371 18.4165C5.27438 15.6232 0.402926 9.89038 0.0253626 6.01672C-0.0953649 4.77783 0.215304 3.7782 0.948946 3.04455L3.4935 0.5L8.67477 5.68127L8.26047 6.09558C7.59958 6.75659 6.51657 7.83728 5.74228 8.60632C6.45456 9.65234 7.82956 11.1981 8.84409 12.2126C9.80441 13.1721 10.9156 14.0455 11.9171 14.7145C12.6385 13.9883 13.6096 13.0143 14.4038 12.2184L14.8187 11.8037L20 16.9861L17.4863 19.4997C16.8173 20.1687 15.9344 20.5 14.888 20.5Z" fill="white"/>
</g>
<defs>
<clipPath id="clip0_2051_290">
<rect width="20" height="20" fill="white" transform="translate(0 0.5)"/>
</clipPath>
</defs>
</svg>
