<svg width="20" height="20" viewBox="0 0 20 20" fill="none" xmlns="http://www.w3.org/2000/svg">
<g clip-path="url(#clip0_2051_269)">
<path d="M19.889 0.162382C19.7374 0.0118275 19.5134 -0.039239 19.3116 0.0311555L0.422652 6.69788C0.200075 6.77621 0.0513518 6.98658 0.0517586 7.22238C0.0519621 7.45818 0.200889 7.66814 0.423466 7.74627L8.6407 10.6251L12.4084 6.85698C12.6263 6.64559 12.9734 6.64824 13.1881 6.86288C13.4027 7.07752 13.4054 7.42461 13.194 7.64251L9.42644 11.4107L12.3053 19.6285C12.3832 19.8507 12.5928 19.9994 12.8282 20H12.8292C13.0648 20.0002 13.2747 19.8517 13.3533 19.6295L20.02 0.74039C20.0906 0.538566 20.0397 0.314158 19.889 0.162382Z" fill="white"/>
</g>
<defs>
<clipPath id="clip0_2051_269">
<rect width="20" height="20" fill="white"/>
</clipPath>
</defs>
</svg>
