<svg width="200" height="41" viewBox="0 0 200 41" fill="none" xmlns="http://www.w3.org/2000/svg">
<path d="M70.8747 29.9241V34.0254H56.9363V29.9241H70.8747ZM58.5167 6.37983V34.0254H53.2803V6.37983H58.5167Z" fill="#1B3A57"/>
<path d="M85.3463 29.6583V20.1836C85.3463 19.4874 85.2257 18.8862 84.9845 18.3798C84.7433 17.8735 84.3752 17.4811 83.8801 17.2026C83.385 16.9241 82.7566 16.7849 81.995 16.7849C81.3222 16.7849 80.7319 16.8988 80.2241 17.1267C79.729 17.3545 79.3482 17.6773 79.0816 18.095C78.815 18.5001 78.6817 18.9684 78.6817 19.5001H73.6357C73.6357 18.652 73.8388 17.8482 74.245 17.0887C74.6513 16.3165 75.2289 15.633 75.9778 15.0381C76.7395 14.4305 77.6471 13.9558 78.7008 13.614C79.7671 13.2722 80.9604 13.1013 82.2806 13.1013C83.842 13.1013 85.232 13.3672 86.4507 13.8988C87.682 14.4178 88.6468 15.2026 89.345 16.2532C90.0559 17.3039 90.4113 18.6267 90.4113 20.2216V29.1836C90.4113 30.2089 90.4748 31.0887 90.6018 31.8229C90.7414 32.5444 90.9445 33.171 91.2111 33.7026V34.0254H86.0889C85.8477 33.5064 85.6636 32.8482 85.5367 32.0507C85.4098 31.2406 85.3463 30.4431 85.3463 29.6583ZM86.0508 21.5127L86.0889 24.4938H82.909C82.1219 24.4938 81.4301 24.576 80.8334 24.7406C80.2368 24.8925 79.7481 25.1203 79.3672 25.4241C78.9864 25.7153 78.7008 26.0697 78.5104 26.4874C78.3199 26.8925 78.2247 27.3545 78.2247 27.8735C78.2247 28.3798 78.339 28.8355 78.5675 29.2406C78.8087 29.6457 79.1514 29.9684 79.5957 30.2089C80.0527 30.4368 80.5859 30.5507 81.1952 30.5507C82.0838 30.5507 82.8582 30.3735 83.5183 30.0191C84.1784 29.652 84.6925 29.2089 85.0607 28.69C85.4288 28.171 85.6256 27.6773 85.6509 27.2089L87.0981 29.3735C86.9204 29.8925 86.6538 30.4431 86.2984 31.0254C85.9429 31.6077 85.4859 32.152 84.9274 32.6583C84.3688 33.1646 83.696 33.5824 82.909 33.9115C82.1219 34.2406 81.2079 34.4051 80.167 34.4051C78.8341 34.4051 77.6408 34.1393 76.5872 33.6077C75.5335 33.076 74.702 32.3482 74.0927 31.4241C73.4834 30.5001 73.1787 29.4494 73.1787 28.2722C73.1787 27.1836 73.3818 26.2216 73.788 25.3862C74.1943 24.5507 74.7972 23.8482 75.597 23.2786C76.3967 22.6963 77.3869 22.2596 78.5675 21.9684C79.7608 21.6646 81.1254 21.5127 82.6614 21.5127H86.0508Z" fill="#1B3A57"/>
<path d="M94.9242 4.86084H99.9702V29.4874L99.4751 34.0254H94.9242V4.86084ZM113.223 23.5444V23.9431C113.223 25.4748 113.052 26.8798 112.709 28.1583C112.379 29.4368 111.878 30.5444 111.205 31.4811C110.532 32.4051 109.694 33.1267 108.691 33.6457C107.701 34.152 106.54 34.4051 105.207 34.4051C103.937 34.4051 102.833 34.1583 101.893 33.6646C100.967 33.171 100.186 32.4748 99.5513 31.576C98.9166 30.6646 98.4088 29.595 98.028 28.3672C97.6471 27.1267 97.3615 25.7722 97.1711 24.3039V23.2216C97.3615 21.7406 97.6471 20.3862 98.028 19.1583C98.4088 17.9305 98.9166 16.8608 99.5513 15.9494C100.186 15.0381 100.967 14.3355 101.893 13.8419C102.82 13.3482 103.912 13.1013 105.169 13.1013C106.514 13.1013 107.688 13.3608 108.691 13.8798C109.707 14.3862 110.545 15.1077 111.205 16.0444C111.878 16.9684 112.379 18.0697 112.709 19.3482C113.052 20.614 113.223 22.0127 113.223 23.5444ZM108.177 23.9431V23.5444C108.177 22.671 108.107 21.8482 107.968 21.076C107.828 20.2912 107.6 19.6013 107.282 19.0064C106.965 18.4115 106.533 17.9431 105.987 17.6013C105.441 17.2596 104.756 17.0887 103.931 17.0887C103.144 17.0887 102.471 17.2216 101.912 17.4874C101.367 17.7532 100.91 18.1203 100.541 18.5887C100.186 19.057 99.9067 19.6077 99.7036 20.2406C99.5132 20.8735 99.3863 21.557 99.3228 22.2912V25.2532C99.4117 26.2279 99.6211 27.1077 99.9512 27.8925C100.281 28.6646 100.77 29.2786 101.417 29.7343C102.077 30.19 102.928 30.4178 103.969 30.4178C104.781 30.4178 105.461 30.2596 106.006 29.9431C106.552 29.614 106.984 29.1583 107.301 28.576C107.619 27.9811 107.841 27.2912 107.968 26.5064C108.107 25.7216 108.177 24.8672 108.177 23.9431Z" fill="#1B3A57"/>
<path d="M122.611 29.0887L127.123 13.4811H130.322L129.37 18.8735L124.819 34.0254H122.058L122.611 29.0887ZM120.116 13.4811L123.506 29.1267L123.81 34.0254H120.63L115.223 13.4811H120.116ZM134.512 28.8988L137.825 13.4811H142.699L137.33 34.0254H134.15L134.512 28.8988ZM130.818 13.4811L135.292 28.9368L135.883 34.0254H133.122L128.533 18.8735L127.6 13.4811H130.818Z" fill="#1B3A57"/>
<path d="M151.002 13.4811V34.0254H145.956V13.4811H151.002ZM145.613 8.10768C145.613 7.36084 145.867 6.74059 146.375 6.24692C146.895 5.75324 147.593 5.50641 148.469 5.50641C149.345 5.50641 150.037 5.75324 150.545 6.24692C151.065 6.74059 151.325 7.36084 151.325 8.10768C151.325 8.84185 151.065 9.45578 150.545 9.94945C150.037 10.4431 149.345 10.69 148.469 10.69C147.593 10.69 146.895 10.4431 146.375 9.94945C145.867 9.45578 145.613 8.84185 145.613 8.10768Z" fill="#1B3A57"/>
<path d="M168.158 29.6583V4.86084H173.223V34.0254H168.653L168.158 29.6583ZM154.924 24.0001V23.6013C154.924 22.0317 155.102 20.6077 155.457 19.3292C155.825 18.0381 156.359 16.9305 157.057 16.0064C157.755 15.0824 158.599 14.3672 159.589 13.8608C160.592 13.3545 161.728 13.1013 162.998 13.1013C164.229 13.1013 165.302 13.3482 166.216 13.8419C167.143 14.3355 167.93 15.0381 168.577 15.9494C169.237 16.8608 169.764 17.9431 170.157 19.1963C170.551 20.4368 170.837 21.8039 171.014 23.2975V24.3798C170.837 25.8355 170.551 27.171 170.157 28.3862C169.764 29.6013 169.237 30.6646 168.577 31.576C167.93 32.4748 167.143 33.171 166.216 33.6646C165.289 34.1583 164.204 34.4051 162.96 34.4051C161.703 34.4051 160.573 34.1457 159.57 33.6267C158.58 33.1077 157.736 32.3798 157.038 31.4431C156.352 30.5064 155.825 29.4051 155.457 28.1393C155.102 26.8735 154.924 25.4938 154.924 24.0001ZM159.97 23.6013V24.0001C159.97 24.8862 160.046 25.7153 160.199 26.4874C160.351 27.2596 160.599 27.9431 160.941 28.5381C161.284 29.1203 161.722 29.576 162.255 29.9051C162.801 30.2343 163.461 30.3988 164.236 30.3988C165.226 30.3988 166.038 30.1836 166.673 29.7532C167.32 29.3102 167.822 28.7089 168.177 27.9494C168.533 27.1773 168.761 26.3102 168.863 25.3482V22.3672C168.812 21.6077 168.679 20.9051 168.463 20.2596C168.26 19.614 167.968 19.057 167.587 18.5887C167.219 18.1203 166.762 17.7532 166.216 17.4874C165.67 17.2216 165.023 17.0887 164.274 17.0887C163.499 17.0887 162.839 17.2596 162.293 17.6013C161.747 17.9305 161.303 18.3925 160.96 18.9874C160.618 19.5824 160.364 20.2722 160.199 21.057C160.046 21.8419 159.97 22.69 159.97 23.6013Z" fill="#1B3A57"/>
<path d="M187.028 34.4051C185.467 34.4051 184.064 34.152 182.82 33.6457C181.576 33.1393 180.516 32.4368 179.64 31.5381C178.777 30.6267 178.11 29.5697 177.641 28.3672C177.184 27.152 176.955 25.8482 176.955 24.4558V23.6963C176.955 22.114 177.184 20.6773 177.641 19.3862C178.098 18.0824 178.745 16.9621 179.583 16.0254C180.421 15.0887 181.424 14.3672 182.592 13.8608C183.759 13.3545 185.048 13.1013 186.457 13.1013C187.917 13.1013 189.205 13.3482 190.322 13.8419C191.44 14.3229 192.373 15.0064 193.122 15.8925C193.871 16.7786 194.435 17.8419 194.816 19.0824C195.197 20.3102 195.388 21.671 195.388 23.1646V25.2722H179.24V21.8165H190.437V21.4368C190.411 20.6393 190.259 19.9115 189.98 19.2532C189.7 18.5824 189.269 18.0507 188.685 17.6583C188.101 17.2532 187.346 17.0507 186.419 17.0507C185.67 17.0507 185.016 17.2153 184.458 17.5444C183.912 17.8608 183.455 18.3165 183.087 18.9115C182.731 19.4938 182.465 20.19 182.287 21.0001C182.109 21.8102 182.02 22.7089 182.02 23.6963V24.4558C182.02 25.3165 182.135 26.114 182.363 26.8482C182.604 27.5824 182.953 28.2216 183.41 28.7659C183.88 29.2976 184.439 29.7153 185.086 30.0191C185.746 30.3102 186.495 30.4558 187.333 30.4558C188.387 30.4558 189.339 30.2532 190.189 29.8482C191.052 29.4305 191.801 28.8165 192.436 28.0064L194.969 30.6267C194.537 31.2596 193.953 31.8672 193.217 32.4494C192.493 33.0317 191.617 33.5064 190.589 33.8735C189.561 34.2279 188.374 34.4051 187.028 34.4051Z" fill="#1B3A57"/>
<path d="M31.8924 19.0583H26.5303C26.2906 19.0583 26.051 19.0664 25.8113 19.0785C25.7341 19.0826 25.7097 19.0623 25.7057 18.9813C25.6244 16.9884 24.7389 15.4572 23.0327 14.4122C22.9515 14.3636 22.9678 14.3271 23.0084 14.2664C24.0199 12.5651 25.0314 10.8638 26.0347 9.15446C27.0706 7.38029 28.0943 5.60206 29.1261 3.82383C29.2032 3.68611 29.1789 3.69826 29.3089 3.77117C30.8159 4.65421 32.1686 5.73168 33.3507 7.01573C35.2722 9.0937 36.6208 11.4917 37.4048 14.2056C37.6282 14.9874 37.7948 15.7772 37.9085 16.5793C38.0182 17.3651 38.0751 18.1509 38.0832 18.9448C38.0832 19.0502 38.0548 19.0745 37.9532 19.0745C35.9343 19.0704 33.9154 19.0704 31.8924 19.0704V19.0583ZM8.72973 19.0745C6.70269 19.0745 4.67565 19.0745 2.64861 19.0785C2.55518 19.0785 2.53487 19.0502 2.53893 18.961C2.58362 15.1291 3.72916 11.6618 5.98774 8.56307C7.41358 6.60661 9.1847 5.02687 11.2727 3.79143C11.3539 3.74282 11.3905 3.74687 11.4392 3.83193C13.4906 7.30737 15.5461 10.7788 17.6016 14.2461C17.6544 14.3312 17.6463 14.3676 17.5569 14.4203C16.1879 15.2507 15.343 16.4497 15.0099 18.0132C14.9449 18.3251 14.9083 18.6451 14.9083 18.9651C14.9083 19.0542 14.8799 19.0785 14.7946 19.0745C13.6409 19.0421 12.4873 19.0502 11.3295 19.0502H8.72161L8.72973 19.0745ZM20.3923 36.7717C19.5108 36.7717 18.7106 36.719 17.9184 36.6096C15.6517 36.2977 13.5191 35.5808 11.5286 34.4547C11.4433 34.4061 11.427 34.3737 11.4839 34.2805L17.4432 24.0041C17.5 23.9069 17.5244 23.7529 17.6178 23.7327C17.6991 23.7124 17.8088 23.8178 17.9062 23.8664C18.54 24.1783 19.2062 24.3646 19.9089 24.4132C20.9813 24.4902 21.9888 24.2714 22.9312 23.757C22.9881 23.7246 23.0246 23.7084 23.0693 23.7853C24.617 26.4669 26.1688 29.1443 27.7205 31.8218C28.1999 32.6481 28.6751 33.4704 29.1586 34.2927C29.2154 34.3899 29.1707 34.4142 29.1017 34.4547C27.9846 35.0866 26.8106 35.5929 25.5838 35.9737C24.7023 36.2451 23.8046 36.4517 22.8906 36.5813C22.3584 36.6583 21.8222 36.7109 21.2819 36.7393C20.9529 36.7636 20.632 36.7595 20.3923 36.7717ZM23.8533 19.0502C23.833 21.0188 22.265 22.5783 20.3111 22.5783C18.3531 22.5783 16.7729 21.0188 16.7729 19.0502C16.7729 17.1018 18.3328 15.5221 20.3111 15.5221C22.2853 15.5261 23.833 17.0978 23.8533 19.0502Z" fill="#2DCE98"/>
</svg>
