<svg width="252" height="51" viewBox="0 0 252 51" fill="none" xmlns="http://www.w3.org/2000/svg">
<path d="M89.302 37.6764V42.8401H71.7396V37.6764H89.302ZM73.731 8.03262V42.8401H67.1331V8.03262H73.731Z" fill="white"/>
<path d="M107.536 37.3417V25.4125C107.536 24.5359 107.384 23.7789 107.08 23.1414C106.776 22.5039 106.313 22.0098 105.689 21.6592C105.065 21.3086 104.273 21.1332 103.314 21.1332C102.466 21.1332 101.722 21.2767 101.082 21.5636C100.458 21.8504 99.9786 22.2568 99.6427 22.7828C99.3068 23.2928 99.1389 23.8825 99.1389 24.5518H92.7809C92.7809 23.484 93.0368 22.472 93.5487 21.5157C94.0605 20.5436 94.7883 19.6829 95.732 18.9339C96.6917 18.1689 97.8353 17.5712 99.1629 17.1409C100.506 16.7106 102.01 16.4954 103.673 16.4954C105.641 16.4954 107.392 16.8301 108.928 17.4995C110.479 18.1529 111.695 19.1411 112.575 20.4639C113.47 21.7867 113.918 23.4521 113.918 25.4603V36.744C113.918 38.035 113.998 39.1426 114.158 40.067C114.334 40.9754 114.59 41.7643 114.926 42.4337V42.8401H108.472C108.168 42.1867 107.936 41.3579 107.776 40.3539C107.616 39.3339 107.536 38.3298 107.536 37.3417ZM108.424 27.0859L108.472 30.8392H104.465C103.474 30.8392 102.602 30.9428 101.85 31.15C101.098 31.3412 100.482 31.6281 100.003 32.0106C99.5228 32.3771 99.1629 32.8234 98.923 33.3493C98.683 33.8593 98.5631 34.4411 98.5631 35.0945C98.5631 35.732 98.707 36.3057 98.9949 36.8157C99.2988 37.3257 99.7307 37.7321 100.291 38.035C100.866 38.3218 101.538 38.4653 102.306 38.4653C103.426 38.4653 104.401 38.2421 105.233 37.7959C106.065 37.3337 106.712 36.7759 107.176 36.1225C107.64 35.469 107.888 34.8475 107.92 34.2578L109.744 36.9831C109.52 37.6365 109.184 38.3298 108.736 39.0629C108.288 39.7961 107.712 40.4814 107.008 41.1189C106.305 41.7564 105.457 42.2823 104.465 42.6967C103.474 43.1111 102.322 43.3182 101.01 43.3182C99.3308 43.3182 97.8273 42.9836 96.4997 42.3142C95.1722 41.6448 94.1245 40.7284 93.3567 39.565C92.589 38.4015 92.2051 37.0787 92.2051 35.5965C92.2051 34.2259 92.461 33.0146 92.9729 31.9628C93.4847 30.9109 94.2445 30.0264 95.2521 29.3092C96.2598 28.5761 97.5074 28.0262 98.9949 27.6596C100.498 27.2771 102.218 27.0859 104.153 27.0859H108.424Z" fill="white"/>
<path d="M119.604 6.12012H125.962V37.1265L125.339 42.8401H119.604V6.12012ZM142.661 29.6439V30.1459C142.661 32.0743 142.445 33.8434 142.013 35.4531C141.597 37.0628 140.966 38.4573 140.118 39.6367C139.27 40.8001 138.214 41.7086 136.951 42.362C135.703 42.9995 134.24 43.3182 132.56 43.3182C130.961 43.3182 129.569 43.0075 128.386 42.3859C127.218 41.7643 126.234 40.8878 125.435 39.7562C124.635 38.6087 123.995 37.262 123.515 35.7161C123.035 34.1542 122.675 32.4489 122.436 30.6001V29.2375C122.675 27.3728 123.035 25.6675 123.515 24.1215C123.995 22.5756 124.635 21.2289 125.435 20.0814C126.234 18.9339 127.218 18.0493 128.386 17.4278C129.553 16.8062 130.929 16.4954 132.512 16.4954C134.208 16.4954 135.687 16.8221 136.951 17.4756C138.23 18.1131 139.286 19.0215 140.118 20.2009C140.966 21.3643 141.597 22.7509 142.013 24.3606C142.445 25.9543 142.661 27.7154 142.661 29.6439ZM136.303 30.1459V29.6439C136.303 28.5442 136.215 27.5082 136.039 26.5361C135.863 25.5479 135.575 24.6793 135.175 23.9303C134.776 23.1812 134.232 22.5915 133.544 22.1612C132.856 21.7309 131.992 21.5157 130.953 21.5157C129.961 21.5157 129.113 21.6831 128.41 22.0178C127.722 22.3525 127.146 22.8146 126.682 23.4043C126.234 23.994 125.882 24.6873 125.626 25.4842C125.387 26.2811 125.227 27.1417 125.147 28.0661V31.7954C125.259 33.0226 125.523 34.1303 125.938 35.1184C126.354 36.0906 126.97 36.8636 127.786 37.4373C128.618 38.0111 129.689 38.2979 131.001 38.2979C132.024 38.2979 132.88 38.0987 133.568 37.7003C134.256 37.2859 134.8 36.7121 135.199 35.979C135.599 35.23 135.879 34.3614 136.039 33.3732C136.215 32.3851 136.303 31.3093 136.303 30.1459Z" fill="white"/>
<path d="M154.489 36.6245L160.176 16.9736H164.206L163.007 23.7629L157.272 42.8401H153.794L154.489 36.6245ZM151.346 16.9736L155.617 36.6723L156.001 42.8401H151.994L145.18 16.9736H151.346ZM169.485 36.3854L173.659 16.9736H179.801L173.035 42.8401H169.029L169.485 36.3854ZM164.83 16.9736L170.468 36.4332L171.212 42.8401H167.733L161.951 23.7629L160.775 16.9736H164.83Z" fill="white"/>
<path d="M190.262 16.9736V42.8401H183.904V16.9736H190.262ZM183.472 10.2081C183.472 9.26777 183.792 8.48684 184.432 7.86527C185.088 7.24371 185.967 6.93293 187.071 6.93293C188.175 6.93293 189.046 7.24371 189.686 7.86527C190.342 8.48684 190.67 9.26777 190.67 10.2081C190.67 11.1325 190.342 11.9054 189.686 12.527C189.046 13.1486 188.175 13.4593 187.071 13.4593C185.967 13.4593 185.088 13.1486 184.432 12.527C183.792 11.9054 183.472 11.1325 183.472 10.2081Z" fill="white"/>
<path d="M211.879 37.3417V6.12012H218.261V42.8401H212.503L211.879 37.3417ZM195.204 30.2176V29.7156C195.204 27.7393 195.428 25.9464 195.876 24.3367C196.34 22.7111 197.012 21.3165 197.892 20.1531C198.771 18.9896 199.835 18.0892 201.083 17.4517C202.346 16.8142 203.778 16.4954 205.377 16.4954C206.929 16.4954 208.28 16.8062 209.432 17.4278C210.6 18.0493 211.591 18.9339 212.407 20.0814C213.239 21.2289 213.902 22.5915 214.398 24.1693C214.894 25.7312 215.254 27.4525 215.478 29.3331V30.6957C215.254 32.5286 214.894 34.21 214.398 35.74C213.902 37.27 213.239 38.6087 212.407 39.7562C211.591 40.8878 210.6 41.7643 209.432 42.3859C208.264 43.0075 206.897 43.3182 205.329 43.3182C203.746 43.3182 202.322 42.9915 201.059 42.3381C199.811 41.6846 198.747 40.7682 197.868 39.5889C197.004 38.4095 196.34 37.0229 195.876 35.4292C195.428 33.8354 195.204 32.0982 195.204 30.2176ZM201.562 29.7156V30.2176C201.562 31.3332 201.658 32.3771 201.85 33.3493C202.042 34.3215 202.354 35.1821 202.786 35.9312C203.218 36.6643 203.77 37.2381 204.441 37.6525C205.129 38.0668 205.961 38.274 206.937 38.274C208.184 38.274 209.208 38.0031 210.008 37.4612C210.823 36.9034 211.455 36.1464 211.903 35.1901C212.351 34.2179 212.639 33.1262 212.767 31.915V28.1617C212.703 27.2054 212.535 26.3209 212.263 25.5081C212.007 24.6953 211.639 23.994 211.159 23.4043C210.695 22.8146 210.12 22.3525 209.432 22.0178C208.744 21.6831 207.928 21.5157 206.985 21.5157C206.009 21.5157 205.177 21.7309 204.489 22.1612C203.802 22.5756 203.242 23.1573 202.81 23.9064C202.378 24.6554 202.058 25.524 201.85 26.5121C201.658 27.5003 201.562 28.5681 201.562 29.7156Z" fill="white"/>
<path d="M235.656 43.3182C233.688 43.3182 231.921 42.9995 230.353 42.362C228.786 41.7245 227.45 40.84 226.347 39.7084C225.259 38.5609 224.419 37.2301 223.827 35.7161C223.252 34.1861 222.964 32.5445 222.964 30.7914V29.8351C222.964 27.8429 223.252 26.034 223.827 24.4084C224.403 22.7668 225.219 21.3564 226.275 20.177C227.33 18.9976 228.594 18.0892 230.065 17.4517C231.537 16.8142 233.16 16.4954 234.936 16.4954C236.775 16.4954 238.399 16.8062 239.806 17.4278C241.214 18.0334 242.389 18.894 243.333 20.0096C244.277 21.1253 244.989 22.464 245.468 24.0259C245.948 25.5718 246.188 27.2851 246.188 29.1657V31.8193H225.843V27.4684H239.95V26.9903C239.918 25.9862 239.726 25.0698 239.374 24.2411C239.022 23.3964 238.479 22.727 237.743 22.2329C237.007 21.7229 236.055 21.4679 234.888 21.4679C233.944 21.4679 233.12 21.6751 232.417 22.0895C231.729 22.4879 231.153 23.0617 230.689 23.8107C230.241 24.5439 229.905 25.4204 229.681 26.4404C229.458 27.4604 229.346 28.592 229.346 29.8351V30.7914C229.346 31.8751 229.49 32.8792 229.777 33.8036C230.081 34.7279 230.521 35.5328 231.097 36.2181C231.689 36.8875 232.393 37.4134 233.208 37.7959C234.04 38.1625 234.984 38.3457 236.039 38.3457C237.367 38.3457 238.567 38.0907 239.638 37.5807C240.726 37.0548 241.67 36.2818 242.469 35.2618L245.66 38.5609C245.117 39.3578 244.381 40.1228 243.453 40.8559C242.541 41.589 241.438 42.1867 240.142 42.6489C238.847 43.0951 237.351 43.3182 235.656 43.3182Z" fill="white"/>
<path d="M40.1844 23.9953H33.4281C33.1261 23.9953 32.8241 24.0055 32.5222 24.0208C32.4249 24.0259 32.3942 24.0004 32.3891 23.8984C32.2867 21.3892 31.1709 19.4614 29.0212 18.1456C28.9188 18.0844 28.9393 18.0385 28.9905 17.962C30.2649 15.82 31.5394 13.678 32.8037 11.5258C34.1088 9.292 35.3987 7.0531 36.6987 4.8142C36.796 4.6408 36.7653 4.6561 36.9291 4.7479C38.828 5.8597 40.5324 7.2163 42.0219 8.833C44.4428 11.4493 46.1421 14.4685 47.13 17.8855C47.4115 18.8698 47.6214 19.8643 47.7647 20.8741C47.9029 21.8635 47.9745 22.8529 47.9848 23.8525C47.9848 23.9851 47.9489 24.0157 47.821 24.0157C45.2771 24.0106 42.7333 24.0106 40.1844 24.0106V23.9953ZM10.9994 24.0157C8.44531 24.0157 5.89124 24.0157 3.33717 24.0208C3.21945 24.0208 3.19385 23.9851 3.19897 23.8729C3.25527 19.0483 4.69866 14.6827 7.54447 10.7812C9.34102 8.3179 11.5726 6.3289 14.2035 4.7734C14.3058 4.7122 14.3519 4.7173 14.4133 4.8244C16.9981 9.2002 19.588 13.5709 22.1779 17.9365C22.2444 18.0436 22.2342 18.0895 22.1216 18.1558C20.3967 19.2013 19.3321 20.7109 18.9124 22.6795C18.8305 23.0722 18.7844 23.4751 18.7844 23.878C18.7844 23.9902 18.7486 24.0208 18.6411 24.0157C17.1875 23.9749 15.7339 23.9851 14.2751 23.9851H10.9891L10.9994 24.0157ZM25.6942 46.2976C24.5835 46.2976 23.5752 46.2313 22.5771 46.0936C19.7211 45.7009 17.0339 44.7982 14.5259 43.3804C14.4185 43.3192 14.398 43.2784 14.4696 43.1611L21.9783 30.2224C22.0499 30.1 22.0807 29.9062 22.1984 29.8807C22.3008 29.8552 22.4389 29.9878 22.5618 30.049C23.3603 30.4417 24.1997 30.6763 25.0851 30.7375C26.4364 30.8344 27.7058 30.559 28.8932 29.9113C28.9649 29.8705 29.0109 29.8501 29.0672 29.947C31.0173 33.3232 32.9726 36.6943 34.9278 40.0654C35.5318 41.1058 36.1306 42.1411 36.7397 43.1764C36.8113 43.2988 36.755 43.3294 36.668 43.3804C35.2605 44.176 33.7813 44.8135 32.2355 45.2929C31.1248 45.6346 29.9937 45.8947 28.842 46.0579C28.1715 46.1548 27.4959 46.2211 26.8152 46.2568C26.4006 46.2874 25.9962 46.2823 25.6942 46.2976ZM30.0551 23.9851C30.0295 26.4637 28.0538 28.4272 25.5919 28.4272C23.1248 28.4272 21.1338 26.4637 21.1338 23.9851C21.1338 21.532 23.0992 19.543 25.5919 19.543C28.0794 19.5481 30.0295 21.5269 30.0551 23.9851Z" fill="#2DCE98"/>
</svg>
