<svg width="69" height="69" viewBox="0 0 69 69" fill="none" xmlns="http://www.w3.org/2000/svg">
<g clip-path="url(#clip0_169_281)">
<path d="M13.9886 20.7397C13.9894 20.7395 13.9902 20.7392 13.9911 20.739L27.9074 17.0462C28.9499 16.7695 30.0195 17.3903 30.2962 18.433C30.5729 19.4756 29.9521 20.5451 28.9095 20.8218L19.5662 23.301L55.3876 43.9826C56.3218 44.5219 56.6419 45.7164 56.1025 46.6506C55.5632 47.5848 54.3687 47.9048 53.4345 47.3655L17.6131 26.684L20.1375 36.0151C20.4192 37.0564 19.8034 38.1288 18.7622 38.4104C17.7207 38.6922 16.6484 38.0761 16.3667 37.0351L12.6066 23.1368C12.6064 23.136 12.6063 23.1351 12.606 23.1343C12.3253 22.0906 12.9477 21.0174 13.9886 20.7397Z" fill="#1B3A57"/>
</g>
<defs>
<clipPath id="clip0_169_281">
<rect width="50" height="50" fill="white" transform="matrix(-0.866025 -0.5 -0.5 0.866025 68.6025 25)"/>
</clipPath>
</defs>
</svg>
