<svg width="69" height="69" viewBox="0 0 69 69" fill="none" xmlns="http://www.w3.org/2000/svg">
<g clip-path="url(#clip0_169_285)">
<path d="M54.6139 47.5611C54.6131 47.5613 54.6123 47.5616 54.6115 47.5618L40.6951 51.2546C39.6526 51.5313 38.5831 50.9105 38.3063 49.8678C38.0296 48.8252 38.6504 47.7557 39.693 47.479L49.0364 44.9998L13.2149 24.3182C12.2807 23.7788 11.9606 22.5844 12.5 21.6502C13.0394 20.716 14.2338 20.3959 15.168 20.9353L50.9894 41.6168L48.465 32.2857C48.1833 31.2444 48.7991 30.172 49.8404 29.8904C50.8818 29.6086 51.9542 30.2247 52.2358 31.2657L55.9959 45.164C55.9961 45.1648 55.9962 45.1657 55.9965 45.1665C56.2772 46.2102 55.6548 47.2834 54.6139 47.5611Z" fill="#1B3A57"/>
</g>
<defs>
<clipPath id="clip0_169_285">
<rect width="50" height="50" fill="white" transform="matrix(0.866025 0.5 0.5 -0.866025 0 43.3008)"/>
</clipPath>
</defs>
</svg>
