<svg width="30" height="30" viewBox="0 0 30 30" fill="none" xmlns="http://www.w3.org/2000/svg">
<path d="M13.8449 26.587C13.7654 26.587 13.6866 26.5705 13.6137 26.5386C13.5408 26.5067 13.4753 26.4601 13.4213 26.4017L1.99898 14.046C1.92283 13.9636 1.87236 13.8608 1.85372 13.7502C1.83508 13.6396 1.8491 13.5259 1.89405 13.4232C1.93901 13.3204 2.01295 13.233 2.10682 13.1716C2.2007 13.1101 2.31044 13.0774 2.42261 13.0774H7.92069C8.00324 13.0775 8.08483 13.0952 8.15995 13.1294C8.23507 13.1636 8.30197 13.2136 8.35615 13.2758L12.1735 17.6676C12.5861 16.7857 13.3847 15.3173 14.7862 13.5281C16.858 10.8829 20.7118 6.99263 27.3051 3.48079C27.4325 3.41293 27.5808 3.39531 27.7206 3.43143C27.8603 3.46754 27.9815 3.55476 28.0601 3.67585C28.1388 3.79695 28.1691 3.94312 28.1452 4.08551C28.1213 4.2279 28.0449 4.35615 27.931 4.44494C27.9059 4.46461 25.3637 6.46654 22.438 10.1334C19.7454 13.5078 16.1661 19.0255 14.4048 26.1488C14.3738 26.2739 14.3019 26.3851 14.2004 26.4646C14.0989 26.5441 13.9737 26.5872 13.8448 26.5872L13.8449 26.587Z" fill="#2DCE98"/>
</svg>
