<svg width="35" height="35" viewBox="0 0 35 35" fill="none" xmlns="http://www.w3.org/2000/svg">
<path d="M17.4994 7.06006C14.804 7.06006 12.6113 9.25282 12.6113 11.9481C12.6113 14.6434 14.8041 16.8361 17.4994 16.8361C20.1946 16.8361 22.3874 14.6434 22.3874 11.9481C22.3874 9.25282 20.1947 7.06006 17.4994 7.06006Z" fill="#2DCE98"/>
<path d="M17.4995 0C10.8076 0 5.36328 5.44428 5.36328 12.1362C5.36328 14.8734 7.28343 19.3846 11.0703 25.5444C13.839 30.0479 16.6469 33.8487 16.6749 33.8865L17.4995 35L18.324 33.8865C18.352 33.8487 21.1599 30.0479 23.9286 25.5444C27.7155 19.3846 29.6356 14.8734 29.6356 12.1362C29.6356 5.44428 24.1914 0 17.4995 0ZM17.4995 18.8881C13.6727 18.8881 10.5595 15.7748 10.5595 11.9481C10.5595 8.12137 13.6728 5.00814 17.4995 5.00814C21.3262 5.00814 24.4394 8.12144 24.4394 11.9481C24.4394 15.7748 21.3262 18.8881 17.4995 18.8881Z" fill="#2DCE98"/>
</svg>
