<svg width="20" height="21" viewBox="0 0 20 21" fill="none" xmlns="http://www.w3.org/2000/svg">
<g clip-path="url(#clip0_2051_276)">
<path d="M11.6714 12.7536C11.1739 13.0853 10.5959 13.2606 10 13.2606C9.40414 13.2606 8.82617 13.0853 8.32859 12.7536L0.133164 7.28977C0.0876953 7.25945 0.0433984 7.22785 0 7.19535V16.1484C0 17.1748 0.833008 17.9895 1.84113 17.9895H18.1588C19.1853 17.9895 20 17.1565 20 16.1484V7.19531C19.9565 7.22789 19.9121 7.25957 19.8665 7.28992L11.6714 12.7536Z" fill="white"/>
<path d="M0.783203 6.31463L8.97863 11.7785C9.28887 11.9853 9.64441 12.0887 9.99996 12.0887C10.3555 12.0887 10.7111 11.9853 11.0214 11.7785L19.2168 6.31463C19.7072 5.98787 20 5.441 20 4.85076C20 3.83588 19.1743 3.01025 18.1595 3.01025H1.84051C0.825664 3.01029 0 3.83592 0 4.85174C0 5.441 0.292812 5.98787 0.783203 6.31463Z" fill="white"/>
</g>
<defs>
<clipPath id="clip0_2051_276">
<rect width="20" height="20" fill="white" transform="translate(0 0.5)"/>
</clipPath>
</defs>
</svg>
