<svg width="35" height="35" viewBox="0 0 35 35" fill="none" xmlns="http://www.w3.org/2000/svg">
<g clip-path="url(#clip0_491_787)">
<path d="M20.425 21.444C19.5543 22.0245 18.5428 22.3313 17.5 22.3313C16.4572 22.3313 15.4458 22.0245 14.575 21.444L0.233037 11.8823C0.153467 11.8293 0.0759473 11.774 0 11.7171V27.3849C0 29.1812 1.45776 30.6069 3.22198 30.6069H31.7779C33.5743 30.6069 34.9999 29.1491 34.9999 27.3849V11.717C34.9238 11.7741 34.8462 11.8295 34.7664 11.8826L20.425 21.444Z" fill="#2DCE98"/>
<path d="M1.37061 10.1757L15.7126 19.7374C16.2555 20.0994 16.8777 20.2803 17.4999 20.2803C18.1222 20.2803 18.7445 20.0993 19.2874 19.7374L33.6294 10.1757C34.4876 9.6039 35 8.64687 35 7.61396C35 5.83791 33.5551 4.39307 31.7791 4.39307H3.22089C1.44491 4.39313 0 5.83798 0 7.61566C0 8.64686 0.512422 9.6039 1.37061 10.1757Z" fill="#2DCE98"/>
</g>
<defs>
<clipPath id="clip0_491_787">
<rect width="35" height="35" fill="white"/>
</clipPath>
</defs>
</svg>
