<svg width="41" height="40" viewBox="0 0 41 40" fill="none" xmlns="http://www.w3.org/2000/svg">
<g clip-path="url(#clip0_264_71)">
<path d="M7.11584 35.3495L15.2965 24.8629C15.7166 24.421 15.9731 23.8434 16.0212 23.229C16.0275 23.0354 15.9859 22.843 15.9012 22.6697C15.8165 22.4964 15.6917 22.3475 15.5365 22.2364C15.1574 21.9692 14.7032 21.8367 14.2433 21.8593C14.0399 21.8657 13.837 21.8834 13.6354 21.9122L0.5 23.7249V16.2753L13.6354 18.1078C13.8369 18.137 14.0398 18.1546 14.2433 18.1607C14.705 18.182 15.16 18.0448 15.5365 17.7706C15.6909 17.6573 15.8151 17.507 15.8996 17.3329C15.9842 17.1587 16.0262 16.966 16.0212 16.7716C15.9807 16.1664 15.734 15.5948 15.3233 15.1572L7.0906 4.51862L13.7254 0.800293L18.666 13.2386C18.8141 13.7031 19.0756 14.1215 19.4239 14.4557C19.5484 14.5911 19.6976 14.699 19.8644 14.7727C20.0312 14.8464 20.2116 14.8846 20.3934 14.8846C20.5751 14.8846 20.7555 14.8464 20.9223 14.7727C21.0891 14.699 21.2383 14.5911 21.3629 14.4557C21.7058 14.1183 21.9647 13.7007 22.1144 13.2386L27.0156 0.800293L33.7688 4.51862L25.4571 15.1572C25.0361 15.609 24.7798 16.1953 24.7324 16.8176C24.729 17.0057 24.7702 17.1921 24.8524 17.3603C24.9346 17.5286 25.0554 17.6739 25.2045 17.7839C25.5966 18.0547 26.0648 18.1867 26.5371 18.1607C26.7539 18.1657 26.9712 18.148 27.1845 18.1078L40.2489 16.2753V23.7249L27.1845 21.9122C26.952 21.8696 26.7148 21.852 26.4787 21.8593C26.0229 21.8316 25.5705 21.952 25.1855 22.2033C25.0388 22.3106 24.9193 22.4528 24.8382 22.6176C24.757 22.7825 24.7165 22.9649 24.7197 23.1495C24.7758 23.7865 25.0325 24.3875 25.4508 24.8629L33.7293 35.3495L27.0029 39.2003L22.075 26.7749C21.9214 26.3147 21.6647 25.898 21.325 25.5578C21.2004 25.4224 21.0497 25.3146 20.8829 25.2408C20.716 25.167 20.5356 25.129 20.3539 25.129C20.1722 25.129 19.9934 25.167 19.8265 25.2408C19.6597 25.3146 19.509 25.4224 19.3844 25.5578C19.0423 25.9011 18.7768 26.3162 18.6076 26.7749L13.667 39.2003L7.11584 35.3495Z" fill="#1B3A57"/>
</g>
<defs>
<clipPath id="clip0_264_71">
<rect width="40" height="38.4" fill="white" transform="translate(0.5 0.800049)"/>
</clipPath>
</defs>
</svg>
